<svg width="25" height="25" viewBox="0 0 25 25" xmlns="http://www.w3.org/2000/svg">
<path d="M24.8999 17.6328C24.8999 22.0918 22.2417 24.75 17.7827 24.75H16.3249C15.6512 24.75 15.0999 24.1987 15.0999 23.525V16.4567C15.0999 16.126 15.3694 15.8442 15.7002 15.8442L17.8562 15.8075C18.0277 15.7952 18.1747 15.6728 18.2114 15.5013L18.6402 13.1615C18.6769 12.941 18.5054 12.7327 18.2727 12.7327L15.6634 12.7695C15.3204 12.7695 15.0509 12.5 15.0387 12.1692L14.9897 9.168C14.9897 8.972 15.1489 8.80051 15.3572 8.80051L18.2972 8.7515C18.5054 8.7515 18.6646 8.59226 18.6646 8.38401L18.6157 5.44399C18.6157 5.23574 18.4564 5.0765 18.2481 5.0765L14.9407 5.12551C12.9072 5.16226 11.2902 6.82825 11.3269 8.86175L11.3882 12.2305C11.4004 12.5735 11.1309 12.843 10.7879 12.8553L9.3179 12.8798C9.10965 12.8798 8.95041 13.039 8.95041 13.2472L8.98716 15.5748C8.98716 15.783 9.1464 15.9423 9.35465 15.9423L10.8247 15.9178C11.1677 15.9178 11.4372 16.1873 11.4494 16.518L11.5597 23.5005C11.5719 24.1865 11.0207 24.75 10.3347 24.75H7.51715C3.05815 24.75 0.399902 22.0918 0.399902 17.6205V7.36725C0.399902 2.90825 3.05815 0.25 7.51715 0.25H17.7827C22.2417 0.25 24.8999 2.90825 24.8999 7.36725V17.6328Z" fill="#CACACA"/>
</svg>
