<svg width="25" height="25" viewBox="0 0 25 25" fill="CACACA" xmlns="http://www.w3.org/2000/svg">
<path fill-rule="evenodd" clip-rule="evenodd" d="M7.19959 0.3235C8.50627 0.263609 8.92277 0.25 12.25 0.25C15.5779 0.25 15.9937 0.264288 17.2997 0.3235C18.6043 0.382712 19.4952 0.590283 20.2744 0.893125C21.0917 1.20083 21.8321 1.68296 22.444 2.30596C23.0671 2.91783 23.5493 3.65824 23.8569 4.47557C24.1597 5.2548 24.3666 6.14566 24.4265 7.44959C24.4864 8.75627 24.5 9.17277 24.5 12.5C24.5 15.8272 24.4857 16.2437 24.4265 17.5505C24.3673 18.8543 24.1597 19.7452 23.8569 20.5244C23.5438 21.3296 23.1245 22.0135 22.444 22.694C21.8322 23.3171 21.0917 23.7993 20.2744 24.1069C19.4952 24.4097 18.6043 24.6166 17.3005 24.6765C15.9937 24.7364 15.5772 24.75 12.25 24.75C8.92277 24.75 8.50627 24.7357 7.19959 24.6765C5.89566 24.6173 5.0048 24.4097 4.22557 24.1069C3.42047 23.7938 2.73652 23.3745 2.05596 22.694C1.43285 22.0822 0.950689 21.3417 0.643125 20.5244C0.340283 19.7452 0.133391 18.8543 0.0735 17.5505C0.0136086 16.2437 0 15.8279 0 12.5C0 9.17209 0.0142879 8.75627 0.0735 7.45028C0.132712 6.14566 0.340283 5.2548 0.643125 4.47557C0.950834 3.6583 1.43296 2.91792 2.05596 2.30596C2.66782 1.68285 3.40823 1.20069 4.22557 0.893125C5.0048 0.590283 5.89566 0.383391 7.19959 0.3235ZM17.2003 2.5285C15.9086 2.46997 15.5207 2.45704 12.25 2.45704C8.97925 2.45704 8.59134 2.46997 7.29964 2.5285C6.10527 2.58295 5.4567 2.78234 5.02522 2.95045C4.45355 3.1723 4.04522 3.43772 3.61647 3.86647C3.18841 4.29522 2.9223 4.70355 2.70045 5.27522C2.53234 5.7067 2.33295 6.35527 2.2785 7.54964C2.21997 8.84134 2.20704 9.22925 2.20704 12.5C2.20704 15.7708 2.21997 16.1586 2.2785 17.4503C2.33295 18.6447 2.53234 19.2933 2.70045 19.7248C2.89669 20.2569 3.20971 20.7382 3.61647 21.1336C4.0117 21.5403 4.49309 21.8533 5.02522 22.0495C5.4567 22.2177 6.10527 22.417 7.29964 22.4715C8.59134 22.5301 8.97857 22.543 12.25 22.543C15.5214 22.543 15.9086 22.5301 17.2003 22.4715C18.3947 22.417 19.0433 22.2177 19.4748 22.0495C20.0465 21.8277 20.4548 21.5623 20.8836 21.1336C21.2903 20.7383 21.6033 20.2569 21.7995 19.7248C21.9677 19.2933 22.167 18.6447 22.2215 17.4503C22.2801 16.1586 22.293 15.7708 22.293 12.5C22.293 9.22925 22.2801 8.84134 22.2215 7.54964C22.167 6.35527 21.9677 5.7067 21.7995 5.27522C21.5777 4.70355 21.3123 4.29522 20.8836 3.86647C20.4548 3.43841 20.0465 3.1723 19.4748 2.95045C19.0433 2.78234 18.3947 2.58295 17.2003 2.5285ZM10.6859 16.2762C11.1818 16.4817 11.7132 16.5874 12.25 16.5874C13.3341 16.5874 14.3737 16.1567 15.1402 15.3902C15.9068 14.6237 16.3375 13.584 16.3375 12.5C16.3375 11.416 15.9068 10.3763 15.1402 9.60976C14.3737 8.84322 13.3341 8.41258 12.25 8.41258C11.7132 8.41258 11.1818 8.5183 10.6859 8.72371C10.1899 8.92912 9.73934 9.2302 9.35979 9.60976C8.98024 9.98931 8.67916 10.4399 8.47375 10.9358C8.26834 11.4317 8.16262 11.9632 8.16262 12.5C8.16262 13.0368 8.26834 13.5683 8.47375 14.0642C8.67916 14.5601 8.98024 15.0107 9.35979 15.3902C9.73934 15.7697 10.1899 16.0709 10.6859 16.2762ZM7.79774 8.04769C8.97856 6.86687 10.5801 6.20349 12.25 6.20349C13.92 6.20349 15.5215 6.86687 16.7023 8.04769C17.8831 9.22852 18.5465 10.8301 18.5465 12.5C18.5465 14.1699 17.8831 15.7714 16.7023 16.9523C15.5215 18.1331 13.92 18.7965 12.25 18.7965C10.5801 18.7965 8.97856 18.1331 7.79774 16.9523C6.61692 15.7714 5.95353 14.1699 5.95353 12.5C5.95353 10.8301 6.61692 9.22852 7.79774 8.04769ZM19.9427 7.1416C20.2217 6.86247 20.3785 6.4839 20.3785 6.08916C20.3785 5.69441 20.2217 5.31584 19.9427 5.03672C19.6635 4.7576 19.285 4.60079 18.8902 4.60079C18.4955 4.60079 18.1169 4.7576 17.8378 5.03672C17.5586 5.31584 17.4018 5.69441 17.4018 6.08916C17.4018 6.4839 17.5586 6.86247 17.8378 7.1416C18.1169 7.42073 18.4955 7.57754 18.8902 7.57754C19.285 7.57754 19.6635 7.42073 19.9427 7.1416Z" fill="#F9F9F9"/>
</svg>
