<svg width="26" height="25" viewBox="0 0 26 25" fill="CACACA" xmlns="http://www.w3.org/2000/svg">
<path fill-rule="evenodd" clip-rule="evenodd" d="M3.13314 12.4994C3.13385 10.3896 3.80748 8.33504 5.05611 6.63437C6.30473 4.9337 8.06327 3.67558 10.0761 3.04291C12.0888 2.41025 14.251 2.43601 16.2481 3.11645C18.2453 3.7969 19.9733 5.09657 21.1811 6.82651C22.3889 8.55645 23.0133 10.6265 22.9638 12.7357C22.9142 14.8449 22.1931 16.8833 20.9054 18.5547C19.6178 20.2259 17.8306 21.443 15.8037 22.0289C13.7768 22.6148 11.6159 22.5389 9.63497 21.8125C10.308 20.0084 10.961 18.197 11.5938 16.3784C12.2635 16.8567 13.128 17.1659 14.2165 17.1659C16.474 17.1659 18.854 15.6785 19.4431 12.7281C20.1863 9.02408 17.2195 5.49975 13.0498 5.49975C11.2963 5.49975 9.57197 6.20439 8.28164 7.32199C6.98897 8.4431 6.0498 10.0577 6.0498 11.9161C6.0498 12.8203 6.3228 13.827 6.97264 14.4896C7.19286 14.7064 7.4894 14.828 7.7984 14.8282C8.1074 14.8284 8.40411 14.7072 8.62464 14.4908C8.83908 14.2765 8.96169 13.9872 8.96648 13.6841C8.97127 13.381 8.85788 13.0879 8.6503 12.8669C7.7333 11.7236 8.94197 9.83838 9.80997 9.08591C10.7118 8.30428 11.903 7.83297 13.0498 7.83297C15.8813 7.83297 17.5811 10.1417 17.1565 12.2708C16.8018 14.037 15.4578 14.8326 14.2165 14.8326C13.2621 14.8326 12.7488 14.4301 12.4198 13.9086C12.5995 13.3441 12.7523 12.8308 12.862 12.4131C13.086 11.5533 13.2213 10.5162 12.4478 9.87104C11.8726 9.39273 11.1936 9.49772 10.7783 9.70654C10.0048 10.0915 9.5498 10.9944 9.5498 11.9161C9.5498 12.4306 9.63031 13.2286 9.91964 14.0533C9.16679 16.2986 8.37411 18.5303 7.54197 20.7473C6.18472 19.8418 5.07211 18.6152 4.30299 17.1764C3.53385 15.7375 3.13201 14.1309 3.13314 12.4994ZM13.0498 0.25C6.2843 0.25 0.799805 5.73424 0.799805 12.4994C0.799805 19.2646 6.2843 24.7488 13.0498 24.7488C19.8153 24.7488 25.2998 19.2646 25.2998 12.4994C25.2998 5.73424 19.8153 0.25 13.0498 0.25Z" fill="#CACACA"/>
</svg>
