<svg width="26" height="25" viewBox="0 0 26 25" fill="CACACA" xmlns="http://www.w3.org/2000/svg">
<path d="M25.0534 4.91564C24.1523 5.3107 23.1876 5.5825 22.1708 5.70576C23.2082 5.08331 24.0014 4.09872 24.3796 2.92578C23.4065 3.49234 22.3301 3.90272 21.1855 4.1347C20.2728 3.15777 18.9682 2.54297 17.5204 2.54297C14.745 2.54297 12.4956 4.79161 12.4956 7.56317C12.4956 7.96206 12.5438 8.34487 12.6273 8.70778C8.45235 8.51254 4.75132 6.50661 2.27605 3.47626C1.84118 4.21433 1.59388 5.07183 1.59388 6.00512C1.59388 7.75151 2.48277 9.28276 3.82644 10.1831C3.00493 10.1594 2.23164 9.93201 1.55407 9.55762V9.6181C1.55407 12.0536 3.28438 14.084 5.58125 14.5464C5.16246 14.6574 4.71533 14.7218 4.26132 14.7218C3.93899 14.7218 3.63121 14.6904 3.32419 14.6337C3.97038 16.6274 5.82013 18.079 8.02513 18.1227C6.31089 19.4663 4.13805 20.2672 1.79677 20.2672C1.39788 20.2672 0.999754 20.248 0.600098 20.1998C2.83343 21.6239 5.46947 22.4569 8.31683 22.4569C17.5556 22.4569 22.6042 14.8044 22.6042 8.1772C22.6042 7.96589 22.6042 7.75075 22.5881 7.53484C23.5734 6.83276 24.4263 5.94311 25.1001 4.93478L25.0534 4.91564Z" fill="#CACACA"/>
</svg>
