<svg id="shopping-bag" xmlns="http://www.w3.org/2000/svg" width="33.899" height="40" viewBox="0 0 33.899 40">
  <g id="Group_4565" data-name="Group 4565" transform="translate(12.163)">
    <g id="Group_4564" data-name="Group 4564">
      <path id="Path_5708" data-name="Path 5708" d="M87.084,4.943A5.763,5.763,0,0,0,76.724,2.367a.678.678,0,1,0,1.094.8,4.408,4.408,0,0,1,7.924,1.968.679.679,0,0,0,.671.582.726.726,0,0,0,.1-.007A.678.678,0,0,0,87.084,4.943Z" transform="translate(-76.593)" fill="#6b7983"/>
    </g>
  </g>
  <g id="Group_4567" data-name="Group 4567" transform="translate(1.356 8.813)">
    <g id="Group_4566" data-name="Group 4566">
      <path id="Path_5709" data-name="Path 5709" d="M53.275,48.091,51.241,44.7a.677.677,0,0,0-.581-.329H48.71a.678.678,0,0,0,0,1.356h1.565l1.22,2.034H24.06l1.22-2.034H26a.678.678,0,0,0,0-1.356H24.9a.677.677,0,0,0-.581.329l-2.034,3.39a.678.678,0,0,0,.581,1.027H52.693a.678.678,0,0,0,.581-1.027Z" transform="translate(-22.185 -44.372)" fill="#6b7983"/>
    </g>
  </g>
  <g id="Group_4569" data-name="Group 4569" transform="translate(17.873 3.799)">
    <g id="Group_4568" data-name="Group 4568">
      <path id="Path_5710" data-name="Path 5710" d="M116.537,21.608a.677.677,0,0,0-.422-.3l-9.242-2.162a.677.677,0,0,0-.815.506l-.7,2.979a.678.678,0,0,0,1.32.308l.543-2.319,7.922,1.853L113.9,27.794a.677.677,0,0,0,.506.814.686.686,0,0,0,.155.018.677.677,0,0,0,.659-.523l1.4-5.982A.675.675,0,0,0,116.537,21.608Z" transform="translate(-105.343 -19.126)" fill="#6b7983"/>
    </g>
  </g>
  <g id="Group_4571" data-name="Group 4571" transform="translate(3.999 2.06)">
    <g id="Group_4570" data-name="Group 4570" transform="translate(0)">
      <path id="Path_5711" data-name="Path 5711" d="M48.8,16.2l-.618-5.225a.678.678,0,0,0-.753-.594l-11.339,1.34a.678.678,0,0,0-.593.753l1.03,8.714a.678.678,0,0,0,.673.6.741.741,0,0,0,.081,0,.678.678,0,0,0,.593-.753l-.95-8.041L46.918,11.8l.538,4.551A.678.678,0,0,0,48.8,16.2Z" transform="translate(-35.494 -10.374)" fill="#6b7983"/>
    </g>
  </g>
  <g id="Group_4573" data-name="Group 4573" transform="translate(9.065 6.509)">
    <g id="Group_4572" data-name="Group 4572" transform="translate(0)">
      <path id="Path_5712" data-name="Path 5712" d="M74.6,38.884l-1.346-5.6a.677.677,0,0,0-.818-.5L61.516,35.415a.678.678,0,0,0-.5.818l.673,2.8a.678.678,0,1,0,1.318-.317l-.514-2.138,9.6-2.309L73.283,39.2a.678.678,0,0,0,1.319-.317Z" transform="translate(-60.997 -32.769)" fill="#6b7983"/>
    </g>
  </g>
  <g id="Group_4575" data-name="Group 4575" transform="translate(0 12.204)">
    <g id="Group_4574" data-name="Group 4574">
      <path id="Path_5713" data-name="Path 5713" d="M47.9,62.084a.678.678,0,0,0-.677-.643H17.393a.678.678,0,0,0-.677.643L15.359,88.525a.678.678,0,0,0,.677.713H48.579a.678.678,0,0,0,.678-.713ZM16.75,87.881,18.036,62.8H46.579l1.286,25.085Z" transform="translate(-15.359 -61.441)" fill="#6b7983"/>
    </g>
  </g>
  <g id="Group_4577" data-name="Group 4577" transform="translate(20 14.915)">
    <g id="Group_4576" data-name="Group 4576">
      <path id="Path_5714" data-name="Path 5714" d="M118.086,75.093a2.034,2.034,0,1,0,2.034,2.034A2.036,2.036,0,0,0,118.086,75.093Zm0,2.712a.678.678,0,1,1,.678-.678A.679.679,0,0,1,118.086,77.8Z" transform="translate(-116.052 -75.093)" fill="#6b7983"/>
    </g>
  </g>
  <g id="Group_4579" data-name="Group 4579" transform="translate(9.831 14.915)">
    <g id="Group_4578" data-name="Group 4578">
      <path id="Path_5715" data-name="Path 5715" d="M66.886,75.093a2.034,2.034,0,1,0,2.034,2.034A2.036,2.036,0,0,0,66.886,75.093Zm0,2.712a.678.678,0,1,1,.678-.678A.679.679,0,0,1,66.886,77.8Z" transform="translate(-64.852 -75.093)" fill="#6b7983"/>
    </g>
  </g>
  <g id="Group_4581" data-name="Group 4581" transform="translate(11.187 16.949)">
    <g id="Group_4580" data-name="Group 4580">
      <path id="Path_5716" data-name="Path 5716" d="M82.526,85.333h-.052a.678.678,0,0,0-.678.678.67.67,0,0,0,.052.261V89.74a4.407,4.407,0,1,1-8.814,0V86.011a.678.678,0,0,0-1.356,0V89.74a5.763,5.763,0,0,0,11.525,0V86.011A.678.678,0,0,0,82.526,85.333Z" transform="translate(-71.679 -85.333)" fill="#6b7983"/>
    </g>
  </g>
</svg>
