<svg xmlns="http://www.w3.org/2000/svg" width="42.667" height="40" viewBox="0 0 42.667 40">
  <g id="camera" transform="translate(0 0)">
    <g id="Group_4595" data-name="Group 4595" transform="translate(37.667 21.667)">
      <g id="Group_4594" data-name="Group 4594">
        <path id="Path_5722" data-name="Path 5722" d="M452.842,276.01a.832.832,0,1,0,.832.832A.831.831,0,0,0,452.842,276.01Z" transform="translate(-452.01 -276.01)" fill="#6b7982"/>
      </g>
    </g>
    <g id="Group_4597" data-name="Group 4597" transform="translate(20.501 18.334)">
      <g id="Group_4596" data-name="Group 4596">
        <path id="Path_5723" data-name="Path 5723" d="M246.842,236.01a.832.832,0,1,0,.833.833A.831.831,0,0,0,246.842,236.01Z" transform="translate(-246.01 -236.01)" fill="#6b7982"/>
      </g>
    </g>
    <g id="Group_4599" data-name="Group 4599" transform="translate(10.5 15)">
      <g id="Group_4598" data-name="Group 4598">
        <path id="Path_5724" data-name="Path 5724" d="M136.833,196a10.833,10.833,0,1,0,10.833,10.833A10.846,10.846,0,0,0,136.833,196Zm0,20A9.167,9.167,0,1,1,146,206.833,9.177,9.177,0,0,1,136.833,216Z" transform="translate(-126 -196)" fill="#6b7982"/>
      </g>
    </g>
    <g id="Group_4601" data-name="Group 4601" transform="translate(23.726 19.167)">
      <g id="Group_4600" data-name="Group 4600">
        <path id="Path_5725" data-name="Path 5725" d="M285.956,246.112a.833.833,0,1,0-.809,1.457,5.845,5.845,0,0,1,3.011,5.1.833.833,0,0,0,1.667,0A7.512,7.512,0,0,0,285.956,246.112Z" transform="translate(-284.717 -246.007)" fill="#6b7982"/>
      </g>
    </g>
    <g id="Group_4603" data-name="Group 4603">
      <g id="Group_4602" data-name="Group 4602" transform="translate(0 0)">
        <path id="Path_5726" data-name="Path 5726" d="M40.167,29.333h-.833v-2.5A.833.833,0,0,0,38.5,26H35.167a.833.833,0,0,0-.833.833v2.5H28a14.128,14.128,0,0,0-2.5-1.042V26H28a2.5,2.5,0,0,0,2.5-2.5v-5A2.5,2.5,0,0,0,28,16H14.667a2.5,2.5,0,0,0-2.5,2.5v5a2.5,2.5,0,0,0,2.5,2.5h2.5v2.291a14.134,14.134,0,0,0-2.5,1.042H8.333v-2.5A.833.833,0,0,0,7.5,26H4.167a.833.833,0,0,0-.833.833v2.5H2.5a2.5,2.5,0,0,0-2.5,2.5v20a2.5,2.5,0,0,0,2.5,2.5H14.665a14.173,14.173,0,0,0,13.336,0H40.167a2.5,2.5,0,0,0,2.5-2.5v-20A2.5,2.5,0,0,0,40.167,29.333ZM36,27.667h1.667v1.667H36ZM14.667,24.333a.834.834,0,0,1-.833-.833v-5a.834.834,0,0,1,.833-.833H28a.834.834,0,0,1,.833.833v5a.834.834,0,0,1-.833.833ZM23.833,26v1.889a14.2,14.2,0,0,0-5,0V26ZM5,27.667H6.667v1.667H5ZM1.667,31.833a.841.841,0,0,1,.833-.842h9.706a14.253,14.253,0,0,0-2.893,3.342H1.667Zm0,4.158H8.421a14.211,14.211,0,0,0,0,11.675H1.667ZM2.5,52.667a.834.834,0,0,1-.833-.833v-2.5H9.313a14.213,14.213,0,0,0,2.893,3.333Zm18.833,1.667a12.5,12.5,0,1,1,12.5-12.5A12.5,12.5,0,0,1,21.333,54.333ZM41,51.833a.834.834,0,0,1-.833.833H30.461a14.212,14.212,0,0,0,2.893-3.333H41Zm0-4.167H34.246a14.192,14.192,0,0,0,0-11.667H41Zm0-13.333H33.354A14.209,14.209,0,0,0,30.461,31h9.706a.834.834,0,0,1,.833.833Z" transform="translate(0 -16)" fill="#6b7982"/>
      </g>
    </g>
    <g id="Group_4605" data-name="Group 4605" transform="translate(25.5 3.333)">
      <g id="Group_4604" data-name="Group 4604">
        <path id="Path_5727" data-name="Path 5727" d="M306.833,56a.833.833,0,0,0-.833.833V58.5a.833.833,0,1,0,1.667,0V56.833A.833.833,0,0,0,306.833,56Z" transform="translate(-306 -56)" fill="#6b7982"/>
      </g>
    </g>
  </g>
</svg>
