<svg xmlns="http://www.w3.org/2000/svg" width="12" height="12" viewBox="0 0 12 12">
  <path id="Path_21671" data-name="Path 21671" d="M-7.5-8.25h3l1.111-1.667a.373.373,0,0,0,.063-.208A.375.375,0,0,0-3.7-10.5H-8.3a.375.375,0,0,0-.375.375.374.374,0,0,0,.063.208Zm3,.75h-3C-12.243-4.8-12-1.2-12-.75A2.427,2.427,0,0,0-9.427,1.5h6.855A2.427,2.427,0,0,0,0-.75C0-1.2.218-4.81-4.5-7.5ZM-5.592-.984v.406a.2.2,0,0,1-.2.2H-6.2a.2.2,0,0,1-.2-.2v-.41a1.482,1.482,0,0,1-.8-.285.2.2,0,0,1-.079-.159.2.2,0,0,1,.063-.146l.3-.283a.208.208,0,0,1,.14-.054.209.209,0,0,1,.118.036.626.626,0,0,0,.326.094h.717a.318.318,0,0,0,.3-.333.326.326,0,0,0-.225-.32l-1.148-.341a1.143,1.143,0,0,1-.806-1.1A1.131,1.131,0,0,1-6.411-5.013v-.41a.2.2,0,0,1,.2-.2h.41a.2.2,0,0,1,.2.2v.411a1.48,1.48,0,0,1,.8.285.2.2,0,0,1,.078.159.2.2,0,0,1-.063.146l-.3.286a.208.208,0,0,1-.14.054.209.209,0,0,1-.118-.036.627.627,0,0,0-.326-.094h-.716a.318.318,0,0,0-.3.333.326.326,0,0,0,.224.321l1.148.341a1.143,1.143,0,0,1,.806,1.1A1.134,1.134,0,0,1-5.592-.984Z" transform="translate(12 10.5)" fill="#d7385e"/>
</svg>
