<svg width="31" height="30" viewBox="0 0 31 30" fill="none" xmlns="http://www.w3.org/2000/svg">
<path d="M0.5 0.419241C0.746479 0.043654 0.987089 -0.0737169 1.28638 0.043654C1.57981 0.161025 1.67371 0.389898 1.67371 0.700931C1.66784 2.65516 1.67371 4.60351 1.67371 6.55774C1.67371 6.66337 1.67371 6.76901 1.67371 6.90398C2.01995 6.90398 2.35446 6.90398 2.73005 6.90398C2.73005 6.80422 2.73005 6.70445 2.73005 6.59882C2.73005 4.62699 2.73005 2.65516 2.73005 0.683325C2.73005 0.296001 2.91784 0.0495226 3.24061 0.0143113C3.62207 -0.0267685 3.89789 0.237316 3.89789 0.653983C3.89789 2.00962 3.89789 3.36525 3.89789 4.72675C3.89789 5.44858 3.89789 6.17041 3.89789 6.90398C4.25587 6.90398 4.59038 6.90398 4.95423 6.90398C4.95423 6.79248 4.95423 6.68685 4.95423 6.58121C4.95423 4.59764 4.95423 2.61995 4.95423 0.636377C4.95423 0.290133 5.15376 0.0553911 5.44718 0.0143113C5.73474 -0.0267685 6.00469 0.137551 6.08685 0.407504C6.12207 0.519006 6.1162 0.636377 6.1162 0.753748C6.1162 2.6845 6.1162 4.62112 6.1162 6.55187C6.1162 6.6575 6.1162 6.76901 6.1162 6.89811C6.46244 6.89811 6.79695 6.89811 7.17253 6.89811C7.17253 6.80422 7.17253 6.70445 7.17253 6.59882C7.17253 4.62699 7.17253 2.65516 7.17253 0.683325C7.17253 0.430978 7.23709 0.21971 7.46596 0.0847338C7.85329 -0.144139 8.33451 0.125814 8.34038 0.589429C8.35211 1.27018 8.34624 1.9568 8.34624 2.63755C8.34624 4.33356 8.35798 6.03544 8.34038 7.73145C8.32277 9.15164 7.67136 10.208 6.43897 10.9005C6.2453 11.012 6.16901 11.1176 6.17488 11.3406C6.18075 16.8277 6.16315 22.3089 6.19249 27.796C6.19836 28.8876 5.84038 29.6387 4.7723 29.9908C4.53756 29.9908 4.30282 29.9908 4.06807 29.9908C3.00587 29.6387 2.64202 28.8934 2.64789 27.796C2.67723 22.303 2.65962 16.816 2.66549 11.323C2.66549 11.1117 2.60681 11.0002 2.41315 10.9005C1.53286 10.4486 0.951878 9.72088 0.646714 8.76431C0.593897 8.59999 0.546948 8.43567 0.5 8.27135C0.5 5.65398 0.5 3.03661 0.5 0.419241ZM1.70305 8.10704C1.89671 9.04013 2.40141 9.66807 3.25235 10.0026C3.76878 10.208 3.83333 10.2901 3.83333 10.8359C3.83333 16.546 3.83333 22.2502 3.83333 27.9603C3.83333 28.0777 3.82746 28.1951 3.84507 28.3124C3.89202 28.6117 4.15023 28.8347 4.42606 28.8289C4.69601 28.823 4.94249 28.6117 4.98944 28.3242C5.00704 28.2127 5.00117 28.0894 5.00117 27.9721C5.00117 22.2326 5.00117 16.4991 5.00117 10.7596C5.00117 10.3195 5.10681 10.1786 5.51761 10.026C5.65258 9.97323 5.79343 9.92041 5.91667 9.84999C6.58568 9.46267 6.99061 8.89342 7.12559 8.10704C5.32394 8.10704 3.53991 8.10704 1.70305 8.10704Z" fill="#6B7983"/>
<path d="M28.3864 29.9966C28.3101 29.9614 28.2279 29.9262 28.1516 29.8969C27.4357 29.6328 26.9838 28.999 26.9838 28.2419C26.9838 25.4602 26.9838 22.6786 26.9896 19.8969C26.9896 19.6973 26.9427 19.5506 26.7901 19.4098C26.4615 19.1046 26.1446 18.7818 25.8394 18.4591C25.276 17.8663 24.9943 17.1621 24.9943 16.3405C24.9943 13.7466 24.9474 11.1469 25.0061 8.55297C25.0882 5.00836 26.6434 2.22081 29.5073 0.149209C29.7244 -0.00337299 29.9474 -0.0561899 30.1939 0.0729181C30.4227 0.196158 30.499 0.401557 30.499 0.659773C30.499 9.86165 30.499 19.0635 30.4932 28.2654C30.4932 28.9755 30.0472 29.6093 29.3781 29.8734C29.2784 29.9145 29.1845 29.9555 29.0847 29.9908C28.8558 29.9966 28.6211 29.9966 28.3864 29.9966ZM29.3253 1.80414C29.2138 1.89804 29.1493 1.95085 29.0906 2.00954C27.1657 3.85226 26.1915 6.11165 26.1681 8.76423C26.1446 11.2642 26.1622 13.7642 26.1622 16.2584C26.1622 16.8335 26.3558 17.3264 26.7666 17.7314C27.1422 18.1011 27.5061 18.4825 27.8875 18.8464C28.0753 19.0283 28.1575 19.2278 28.1575 19.4919C28.1457 20.5365 28.1516 21.5811 28.1516 22.6257C28.1516 24.4626 28.1516 26.2936 28.1516 28.1304C28.1516 28.5412 28.404 28.8288 28.7502 28.817C29.0847 28.8112 29.3195 28.5354 29.3253 28.1363C29.3253 28.0952 29.3253 28.06 29.3253 28.0189C29.3253 19.3922 29.3253 10.7595 29.3253 2.13278C29.3253 2.04475 29.3253 1.95085 29.3253 1.80414Z" fill="#6B7983"/>
<path d="M15.5189 6.68751C20.1081 6.69338 23.8229 10.4199 23.817 15.0267C23.8111 19.6159 20.0788 23.3248 15.4778 23.319C10.8769 23.3131 7.17383 19.5748 7.17969 14.9504C7.19143 10.3847 10.9297 6.68164 15.5189 6.68751ZM15.5072 7.85535C11.5811 7.84948 8.3534 11.0713 8.34753 14.9974C8.34753 18.9117 11.5459 22.1276 15.4719 22.1453C19.3921 22.1687 22.6316 18.9469 22.6433 15.015C22.6609 11.0948 19.4391 7.86122 15.5072 7.85535Z" fill="#6B7983"/>
<path d="M15.5242 26.2443C13.3587 26.1974 11.3634 25.6223 9.53245 24.4838C9.28597 24.3312 9.13339 24.1317 9.18034 23.8324C9.22142 23.58 9.38574 23.3864 9.63809 23.3629C9.81414 23.3511 10.0254 23.404 10.178 23.4979C11.2871 24.1727 12.4726 24.654 13.7578 24.8594C17.2144 25.4051 20.1956 24.4368 22.678 21.972C22.9127 21.7373 23.1181 21.4791 23.3411 21.2326C23.6052 20.945 23.928 20.904 24.1921 21.127C24.4503 21.3382 24.4796 21.6962 24.2449 21.9896C22.5019 24.1434 20.2719 25.499 17.5489 26.0096C16.8857 26.127 16.205 26.168 15.5242 26.2443Z" fill="#6B7983"/>
<path d="M15.2366 3.79688C18.6287 3.83795 21.3223 4.97058 23.5465 7.21237C23.8047 7.47645 23.8575 7.78162 23.6873 8.0281C23.5348 8.2511 23.2355 8.3626 22.989 8.24523C22.8423 8.17481 22.719 8.05744 22.6017 7.94007C21.6451 6.98349 20.5535 6.22645 19.2918 5.73349C16.5571 4.65368 13.8517 4.73584 11.1815 5.96237C11.0993 5.99758 11.023 6.04453 10.9467 6.07387C10.6181 6.20298 10.2953 6.08561 10.1603 5.78631C10.0254 5.49875 10.1251 5.16425 10.4362 5.0234C10.9995 4.76518 11.5747 4.51284 12.1615 4.31918C12.6603 4.15486 13.1768 4.03749 13.6932 3.95533C14.2801 3.86143 14.8728 3.83209 15.2366 3.79688Z" fill="#6B7983"/>
<path d="M7.41406 22.5009C7.41406 22.1664 7.67228 21.9141 8.00679 21.9141C8.34129 21.9199 8.61125 22.1958 8.60538 22.5361C8.59951 22.853 8.34129 23.1112 8.03026 23.1112C7.70162 23.1171 7.41406 22.8354 7.41406 22.5009Z" fill="#6B7983"/>
<path d="M10.1134 14.7927C10.2953 12.6155 11.3282 11.0134 13.3235 10.0744C13.6697 9.91009 13.9984 10.0275 14.1451 10.3326C14.3035 10.6554 14.1627 10.9782 13.7812 11.1601C12.5723 11.7293 11.7742 12.6507 11.4338 13.9418C11.3517 14.2587 11.3165 14.5932 11.2871 14.9218C11.2519 15.3561 11.0406 15.5967 10.6768 15.585C10.3188 15.5732 10.1075 15.315 10.1134 14.8807C10.1134 14.8514 10.1134 14.8221 10.1134 14.7927Z" fill="#6B7983"/>
<path d="M15.5175 9.62589C15.852 9.64349 16.0985 9.90758 16.0809 10.2421C16.0633 10.5766 15.805 10.8055 15.4529 10.7937C15.1184 10.782 14.8661 10.5062 14.8837 10.1775C14.9013 9.85476 15.183 9.60828 15.5175 9.62589Z" fill="#6B7983"/>
</svg>
