<svg xmlns="http://www.w3.org/2000/svg" width="17.438" height="17.438" viewBox="0 0 17.438 17.438">
  <path id="Path_5906" data-name="Path 5906" d="M8.719-15.469A8.719,8.719,0,0,0,0-6.75,8.719,8.719,0,0,0,8.719,1.969,8.719,8.719,0,0,0,17.438-6.75,8.719,8.719,0,0,0,8.719-15.469ZM11.612-2.9l-.4.4A.84.84,0,0,0,11-2.124c-.053.2-.1.4-.168.593L10.218.116a7.026,7.026,0,0,1-1.5.165V-.681a2.632,2.632,0,0,0-.8-1.8,1.125,1.125,0,0,1-.329-.8V-4.4a1.121,1.121,0,0,0-.579-.983c-.505-.279-1.224-.67-1.716-.918A5.069,5.069,0,0,1,4.186-7.07L4.158-7.1a4.012,4.012,0,0,1-.635-.729c-.33-.484-.867-1.28-1.216-1.8A7.069,7.069,0,0,1,5.935-13.2l.844.422a.563.563,0,0,0,.814-.5v-.4a7.03,7.03,0,0,1,.857-.085l.995.995a.563.563,0,0,1,0,.8l-.165.165-.364.364a.281.281,0,0,0,0,.4l.165.165a.281.281,0,0,1,0,.4l-.281.281a.281.281,0,0,1-.2.082H8.286a.281.281,0,0,0-.2.08l-.349.339a.281.281,0,0,0-.085.2.282.282,0,0,0,.03.126l.548,1.1a.281.281,0,0,1-.251.407h-.2A.281.281,0,0,1,7.6-7.944l-.326-.283a.561.561,0,0,0-.369-.138.564.564,0,0,0-.178.029l-1.1.365a.421.421,0,0,0-.287.4h0a.42.42,0,0,0,.232.376L5.966-7a2.381,2.381,0,0,0,1.066.252c.37,0,.794.959,1.125,1.125H10.5a1.126,1.126,0,0,1,.8.329l.481.481a1.069,1.069,0,0,1,.314.758h0A1.631,1.631,0,0,1,11.612-2.9ZM14.66-6.108a.844.844,0,0,1-.5-.35l-.632-.948a.838.838,0,0,1-.141-.467.844.844,0,0,1,.141-.469l.689-1.033a.843.843,0,0,1,.325-.287L15-9.891a6.976,6.976,0,0,1,.75,3.141,7,7,0,0,1-.064.9Z" transform="translate(0 15.469)" fill="#d7385e"/>
</svg>
