<svg width="45" height="44" viewBox="0 0 45 44" fill="none" xmlns="http://www.w3.org/2000/svg">
<g clip-path="url(#clip0_673_61028)">
<path d="M7.51562 11.3756C7.69929 11.1149 7.93628 11.0853 8.23844 11.1445C11.2956 11.737 14.3824 11.974 17.4869 11.9503C22.6118 11.9088 27.6181 11.1682 32.429 9.3138C33.9576 8.72726 35.4269 8.02814 36.8488 7.22238C36.9495 7.16314 37.0503 7.10389 37.1569 7.05057C37.388 6.94392 37.5894 7.0091 37.7197 7.21646C37.856 7.42975 37.8086 7.63119 37.619 7.79708C37.5539 7.85633 37.4768 7.8978 37.3939 7.93927C36.2445 8.51397 35.0892 9.09459 33.9339 9.65744C33.7739 9.73446 33.6969 9.8174 33.7028 10.007C33.7147 10.5402 33.7087 11.0675 33.7087 11.5948C34.4434 11.737 34.6152 11.9503 34.6152 12.679C34.6152 12.7264 34.6211 12.7798 34.6152 12.8272C34.5619 13.313 34.6863 13.6862 35.0477 14.0832C35.9838 15.1022 35.6935 16.7552 34.5263 17.5017C34.2005 17.7091 33.9398 17.6854 33.7798 17.4366C33.6258 17.1996 33.7087 16.9744 34.0287 16.7552C34.5619 16.3938 34.7929 15.8369 34.6626 15.2207C34.55 14.6697 34.0938 14.2491 33.5014 14.1424C32.8733 14.0299 32.2453 14.3616 31.9728 14.9482C31.7003 15.5288 31.8543 16.2279 32.346 16.6367C32.4349 16.7138 32.5416 16.7671 32.6364 16.8441C32.8437 17.01 32.8911 17.2411 32.7608 17.4425C32.6304 17.6439 32.3994 17.7032 32.1624 17.5906C31.3625 17.2114 30.8056 16.1272 30.9597 15.2444C31.0604 14.6579 31.3211 14.1721 31.7654 13.7692C31.8543 13.6922 31.9017 13.544 31.9135 13.4196C31.9372 13.1826 31.9195 12.9456 31.9195 12.7087C31.9195 11.9562 32.0794 11.7548 32.82 11.6007C32.82 11.1327 32.82 10.6587 32.82 10.1729C31.7595 10.5165 30.7108 10.8839 29.6444 11.1919C28.572 11.5 27.4759 11.7489 26.368 12.0273C26.368 12.5546 26.368 13.0997 26.368 13.6448C27.1323 13.8403 27.2627 14.0121 27.2627 14.8179C27.2627 14.9186 27.2686 15.0134 27.2627 15.1141C27.239 15.4459 27.2864 15.7362 27.4996 16.0206C27.784 16.4057 27.8255 16.8737 27.7485 17.3477C27.6181 18.1475 27.3634 18.894 26.8242 19.5161C26.2673 20.156 25.5623 20.1856 25.0231 19.5458C24.3122 18.6926 23.927 17.7091 24.087 16.5775C24.1166 16.3523 24.2292 16.1213 24.3655 15.9376C24.5195 15.7303 24.5728 15.5288 24.561 15.2859C24.5491 15.0904 24.561 14.8949 24.561 14.6934C24.561 14.0121 24.7565 13.781 25.4378 13.6625C25.4378 13.1767 25.4378 12.6909 25.4378 12.2347C23.4294 12.4361 21.4387 12.6435 19.4183 12.8627C19.4183 13.3545 19.4183 13.8995 19.4183 14.4564C19.5072 14.4742 19.5902 14.492 19.679 14.5098C20.0108 14.5809 20.2656 14.8356 20.2893 15.1793C20.313 15.511 20.3189 15.8487 20.3071 16.1805C20.3011 16.3938 20.3663 16.536 20.5263 16.6841C21.2669 17.3536 21.4861 18.3964 21.101 19.3028C20.704 20.2212 19.7798 20.7781 18.7489 20.707C17.8246 20.6478 16.9774 19.9546 16.7226 19.0185C16.4678 18.1001 16.7226 17.3062 17.4099 16.6604C17.558 16.5242 17.6172 16.3938 17.6054 16.2042C17.5935 15.9376 17.5995 15.671 17.6054 15.4044C17.6113 14.8238 17.8128 14.5868 18.3815 14.4742C18.4171 14.4683 18.4585 14.4505 18.5059 14.4387C18.5059 13.9173 18.5059 13.3959 18.5059 12.8923C16.3612 12.8153 14.2283 12.7383 12.0658 12.6553C12.0658 13.0582 12.0658 13.4966 12.0658 13.9291C12.7768 14.0891 12.9486 14.3024 12.9486 15.0193C12.9486 15.1378 12.9545 15.2563 12.9486 15.3748C12.9367 15.7125 12.9723 16.0087 13.1915 16.3109C13.5351 16.7849 13.5173 17.3418 13.387 17.8987C13.227 18.6097 12.9782 19.2792 12.4805 19.8242C11.9295 20.4285 11.2482 20.4522 10.7209 19.8301C9.99807 18.977 9.61297 17.9816 9.77294 16.8322C9.80256 16.6249 9.89143 16.4057 10.0218 16.2457C10.2114 16.0087 10.2588 15.7658 10.241 15.4814C10.2291 15.2859 10.2351 15.0904 10.241 14.8889C10.241 14.2846 10.4898 14.0121 11.1178 13.941C11.1178 13.467 11.1178 12.9871 11.1178 12.4954C10.3002 12.3887 9.48263 12.2643 8.67094 12.1399C8.43988 12.1043 8.19697 12.0806 7.97775 12.0095C7.81186 11.9503 7.66967 11.8259 7.51562 11.7252C7.51562 11.6067 7.51562 11.4882 7.51562 11.3756ZM18.9681 16.9685C18.1801 16.9626 17.5402 17.5847 17.5224 18.3727C17.5047 19.1547 18.1742 19.8301 18.9621 19.8242C19.7383 19.8242 20.39 19.1725 20.39 18.3904C20.3959 17.6143 19.7561 16.9744 18.9681 16.9685ZM12.5575 17.4069C12.5694 16.7375 12.1487 16.2872 11.5977 16.2813C11.0704 16.2753 10.5905 16.7138 10.6142 17.2529C10.6439 17.952 10.869 18.6037 11.3015 19.1666C11.5207 19.451 11.6629 19.451 11.8821 19.1607C12.2969 18.6097 12.4983 17.9816 12.5575 17.4069ZM26.8657 17.1107C26.8775 16.4471 26.4628 15.9969 25.9177 15.985C25.3786 15.9732 24.8928 16.4294 24.9224 16.9744C24.9639 17.6617 25.1831 18.3075 25.6037 18.8585C25.8289 19.1547 25.977 19.1488 26.2021 18.8407C26.605 18.3016 26.8005 17.6795 26.8657 17.1107ZM19.3947 16.0739C19.3947 15.8487 19.3947 15.6295 19.3947 15.4044C19.0925 15.4044 18.8081 15.4044 18.5296 15.4044C18.5296 15.6473 18.5296 15.8665 18.5296 16.0739C18.82 16.0739 19.0925 16.0739 19.3947 16.0739ZM33.7028 12.5546C33.3888 12.5546 33.1103 12.5546 32.8378 12.5546C32.8378 12.7975 32.8378 13.0167 32.8378 13.2241C33.14 13.2241 33.4184 13.2241 33.7028 13.2241C33.7028 12.993 33.7028 12.7798 33.7028 12.5546ZM26.3384 14.5868C26.0244 14.5868 25.7341 14.5868 25.4556 14.5868C25.4556 14.7823 25.4556 14.9541 25.4556 15.1141C25.7578 15.1141 26.0422 15.1141 26.3384 15.1141C26.3384 14.9363 26.3384 14.7764 26.3384 14.5868ZM11.1415 14.8712C11.1415 15.0785 11.1415 15.2504 11.1415 15.4103C11.4437 15.4103 11.7281 15.4103 12.0243 15.4103C12.0243 15.2267 12.0243 15.0548 12.0243 14.8712C11.7222 14.8712 11.4437 14.8712 11.1415 14.8712Z" fill="#6B7983"/>
<path d="M25.9673 36.3196C25.7303 36.2307 25.4874 36.1596 25.2623 36.0411C23.8285 35.2768 23.5915 33.375 24.7883 32.273C24.9423 32.1308 25.0134 32.0004 25.0016 31.7931C24.9838 31.5857 24.9956 31.3784 24.9956 31.171C24.9956 30.4008 25.1378 30.2171 25.8843 30.0453C25.8843 29.5121 25.8843 28.9788 25.8843 28.4634C23.8877 28.2501 21.8852 28.0368 19.8767 27.8176C19.8767 28.256 19.8767 28.7478 19.8767 29.2573C19.9478 29.2692 20.013 29.2751 20.0781 29.2869C20.4632 29.3462 20.7358 29.6424 20.7536 30.0275C20.7654 30.223 20.7595 30.4245 20.7536 30.62C20.7417 30.9873 20.7595 31.3132 21.0142 31.639C21.2927 31.9945 21.3342 32.4566 21.2572 32.9129C21.1327 33.6712 20.8957 34.3822 20.4158 34.9983C19.8056 35.7804 19.0235 35.81 18.4192 35.028C17.7971 34.2163 17.4416 33.292 17.5661 32.2552C17.5957 31.9886 17.7794 31.7338 17.8801 31.4732C17.9393 31.3132 18.0104 31.1532 18.0341 30.9873C18.0578 30.7859 18.04 30.5726 18.04 30.3652C18.04 29.6069 18.2 29.4054 18.9347 29.2455C18.9347 28.7004 18.9347 28.1494 18.9347 27.5806C16.7425 27.1422 14.5978 26.5438 12.4945 25.7262C12.4945 26.2298 12.4945 26.7038 12.4945 27.1955C12.5893 27.2133 12.696 27.2311 12.7908 27.2607C13.1285 27.3555 13.324 27.5806 13.3655 27.9302C13.3773 28.0487 13.3892 28.1672 13.3773 28.2857C13.3358 28.8367 13.4247 29.281 13.8454 29.7372C14.58 30.5252 14.5148 31.7694 13.8217 32.6166C13.1581 33.4283 11.9909 33.7008 11.0726 33.2565C10.8001 33.1261 10.6934 32.901 10.7941 32.664C10.8949 32.4211 11.1318 32.3322 11.4103 32.427C11.4636 32.4448 11.5229 32.4685 11.5762 32.4863C12.3227 32.7351 13.1107 32.35 13.3714 31.6153C13.5728 31.0406 13.4425 30.5252 13.01 30.0986C12.5952 29.6898 11.9731 29.595 11.4459 29.8261C10.9245 30.0571 10.5808 30.5963 10.5927 31.171C10.5927 31.2184 10.6045 31.2717 10.6045 31.3191C10.6045 31.5857 10.4327 31.7931 10.1957 31.8168C9.96468 31.8405 9.74546 31.6627 9.70991 31.3961C9.65067 30.9222 9.73361 30.4659 9.97653 30.0571C10.1128 29.8202 10.2905 29.6009 10.486 29.4114C10.6282 29.2751 10.6875 29.1388 10.6756 28.9492C10.6638 28.7241 10.6697 28.4989 10.6756 28.2679C10.6756 27.5451 10.8534 27.3259 11.5821 27.1837C11.5821 26.6208 11.588 26.0461 11.5703 25.4774C11.5703 25.4003 11.4399 25.3055 11.3511 25.2581C10.1957 24.6716 9.02857 24.0969 7.87326 23.5103C7.73106 23.4393 7.62442 23.2971 7.5 23.1904C7.5 23.0897 7.5 22.9949 7.5 22.8942C7.76661 22.5446 7.92065 22.515 8.29983 22.7283C11.9613 24.8375 15.9072 26.1409 20.0544 26.8637C23.473 27.4621 26.9212 27.6339 30.3871 27.4917C32.6622 27.397 34.9195 27.154 37.1591 26.7215C37.4908 26.6564 37.7219 26.7867 37.7693 27.0592C37.8167 27.3318 37.6508 27.551 37.319 27.6043C36.4066 27.7524 35.4942 27.8887 34.5818 28.0309C34.4574 28.0487 34.327 28.0724 34.1849 28.0961C34.1849 28.576 34.1849 29.0499 34.1849 29.5298C34.9195 29.7017 35.0617 29.8794 35.0617 30.6496C35.0617 30.7385 35.0676 30.8274 35.0617 30.9162C35.0439 31.2836 35.0795 31.6094 35.3224 31.9353C35.6127 32.3263 35.6364 32.8062 35.5475 33.292C35.4113 34.0267 35.1743 34.7199 34.7003 35.3124C34.1078 36.0589 33.3258 36.0826 32.7392 35.3301C32.1053 34.5125 31.7498 33.5823 31.8742 32.5337C31.9038 32.273 32.0757 32.0301 32.1764 31.7753C32.2416 31.6094 32.3186 31.4376 32.3423 31.2658C32.3719 31.0406 32.3482 30.8155 32.3482 30.5844C32.3482 29.909 32.5556 29.6543 33.231 29.5417C33.231 29.1092 33.231 28.6708 33.231 28.256C31.0922 28.3331 28.9593 28.416 26.8027 28.493C26.8027 28.967 26.8027 29.4943 26.8027 30.0394C26.8738 30.0571 26.9567 30.0749 27.0456 30.0927C27.4129 30.1756 27.6558 30.4304 27.6795 30.8096C27.7032 31.1651 27.6795 31.5205 27.6973 31.8701C27.7032 31.9827 27.7566 32.1189 27.8395 32.196C28.5327 32.8418 28.8289 33.6238 28.5919 34.5421C28.3549 35.4545 27.7506 36.0292 26.8204 36.2544C26.7849 36.2603 26.7553 36.2899 26.7257 36.3077C26.4768 36.3196 26.2221 36.3196 25.9673 36.3196ZM27.7862 33.9911C27.7862 33.2091 27.1404 32.5692 26.3583 32.5633C25.5763 32.5574 24.9305 33.1913 24.9186 33.9793C24.9068 34.7614 25.5763 35.4368 26.3583 35.4249C27.1345 35.419 27.7862 34.7673 27.7862 33.9911ZM18.4429 32.7233C18.4962 33.2802 18.7036 33.8904 19.0887 34.4237C19.3316 34.7614 19.4916 34.7614 19.7404 34.4118C20.0959 33.9141 20.2855 33.3513 20.3685 32.747C20.4514 32.1486 20.0485 31.6272 19.4738 31.5857C18.8932 31.5502 18.4311 32.0123 18.4429 32.7233ZM32.7511 33.0195C32.8044 33.5764 33.0058 34.1867 33.3969 34.7258C33.6398 35.0635 33.7997 35.0635 34.0486 34.714C34.4159 34.2104 34.6055 33.6357 34.6825 33.0195C34.7595 32.4389 34.3507 31.9294 33.782 31.8879C33.2073 31.8464 32.7392 32.3085 32.7511 33.0195ZM12.4827 28.1612C12.1687 28.1612 11.8843 28.1612 11.6117 28.1612C11.6117 28.4101 11.6117 28.6174 11.6117 28.8189C11.9139 28.8189 12.1924 28.8189 12.4827 28.8189C12.4827 28.5937 12.4827 28.3805 12.4827 28.1612ZM26.7849 31.6746C26.7849 31.4495 26.7849 31.2302 26.7849 30.9992C26.4887 30.9992 26.2102 30.9992 25.9258 30.9992C25.9258 31.2421 25.9258 31.4672 25.9258 31.6746C26.2161 31.6746 26.4887 31.6746 26.7849 31.6746ZM19.8589 30.1875C19.5568 30.1875 19.2724 30.1875 18.9761 30.1875C18.9761 30.3712 18.9761 30.543 18.9761 30.7148C19.2783 30.7148 19.5627 30.7148 19.8589 30.7148C19.8589 30.543 19.8589 30.3712 19.8589 30.1875ZM34.1612 31.0051C34.1612 30.8155 34.1612 30.6496 34.1612 30.4778C33.859 30.4778 33.5805 30.4778 33.2843 30.4778C33.2843 30.6615 33.2843 30.8333 33.2843 31.0051C33.5865 31.0051 33.8649 31.0051 34.1612 31.0051Z" fill="#6B7983"/>
</g>
<defs>
<clipPath id="clip0_673_61028">
<rect width="44" height="44" fill="white" transform="translate(0.5)"/>
</clipPath>
</defs>
</svg>
