<svg xmlns="http://www.w3.org/2000/svg" width="13.5" height="18" viewBox="0 0 13.5 18">
  <path id="Path_5768" data-name="Path 5768" d="M10.125-6.75H3.375V-4.5h6.75Zm3.129-5.309L9.812-15.5a.843.843,0,0,0-.6-.246H9v4.5h4.5v-.214A.841.841,0,0,0,13.254-12.059Zm-5.379,1.09V-15.75H.844A.842.842,0,0,0,0-14.906V1.406a.842.842,0,0,0,.844.844H12.656a.842.842,0,0,0,.844-.844V-10.125H8.719A.846.846,0,0,1,7.875-10.969ZM2.25-13.219a.281.281,0,0,1,.281-.281H5.344a.281.281,0,0,1,.281.281v.563a.281.281,0,0,1-.281.281H2.531a.281.281,0,0,1-.281-.281Zm0,2.25a.281.281,0,0,1,.281-.281H5.344a.281.281,0,0,1,.281.281v.563a.281.281,0,0,1-.281.281H2.531a.281.281,0,0,1-.281-.281Zm9,10.688A.281.281,0,0,1,10.969,0H8.156a.281.281,0,0,1-.281-.281V-.844a.281.281,0,0,1,.281-.281h2.813a.281.281,0,0,1,.281.281Zm0-7.031v3.375a.562.562,0,0,1-.562.563H2.813a.562.562,0,0,1-.562-.562V-7.312a.562.562,0,0,1,.563-.562h7.875A.562.562,0,0,1,11.25-7.312Z" transform="translate(0 15.75)" fill="#d7385e"/>
</svg>
