<svg id="briefcase" xmlns="http://www.w3.org/2000/svg" width="46.154" height="40" viewBox="0 0 46.154 40">
  <g id="Group_4563" data-name="Group 4563">
    <path id="Path_5707" data-name="Path 5707" d="M43.846,39.692H35.385V37.385A5.391,5.391,0,0,0,30,32H16.154a5.391,5.391,0,0,0-5.385,5.385v2.308H2.308A2.308,2.308,0,0,0,0,42V57.385a2.308,2.308,0,0,0,1.538,2.166V69.692A2.308,2.308,0,0,0,3.846,72H42.308a2.308,2.308,0,0,0,2.308-2.308V59.551a2.308,2.308,0,0,0,1.538-2.166V42A2.308,2.308,0,0,0,43.846,39.692ZM12.308,37.385a3.851,3.851,0,0,1,3.846-3.846H30a3.851,3.851,0,0,1,3.846,3.846v2.308H32.277l.031-2.308A2.312,2.312,0,0,0,30,35.077H16.125a2.312,2.312,0,0,0-2.308,2.308v.008l.021,2.3H12.308Zm18.462-.011-.031,2.318H15.377l-.024-2.308a.769.769,0,0,1,.769-.769H30A.769.769,0,0,1,30.769,37.374ZM43.077,69.692a.769.769,0,0,1-.769.769H3.846a.769.769,0,0,1-.769-.769v-10H8.462V62a.769.769,0,0,0,.769.769h3.077A.769.769,0,0,0,13.077,62V59.692h20V62a.769.769,0,0,0,.769.769h3.077A.769.769,0,0,0,37.692,62V59.692h5.385ZM10,61.231V57.385a.75.75,0,0,1,.236-.548.732.732,0,0,1,.533-.222.769.769,0,0,1,.769.769v3.846Zm24.615,0V57.385a.769.769,0,0,1,.769-.769.751.751,0,0,1,.548.235.742.742,0,0,1,.221.534v3.846Zm10-3.846a.769.769,0,0,1-.769.769H37.692v-.769a2.308,2.308,0,0,0-4.615,0v.769h-20v-.769a2.308,2.308,0,0,0-4.615,0v.769H2.308a.769.769,0,0,1-.769-.769V42a.769.769,0,0,1,.769-.769H43.846a.769.769,0,0,1,.769.769Z" transform="translate(0 -32)" fill="#6b7983"/>
  </g>
</svg>
