<svg xmlns="http://www.w3.org/2000/svg" width="20.25" height="18" viewBox="0 0 20.25 18">
  <path id="Path_5905" data-name="Path 5905" d="M19.828-15.75H17.051a.423.423,0,0,0-.3.721l.594.594-1.712,1.712a5.038,5.038,0,0,0-2.7-.777A5.061,5.061,0,0,0,9.8-12.414a6.208,6.208,0,0,1,1.129,2.007,2.8,2.8,0,0,1,2.007-.844A2.816,2.816,0,0,1,15.75-8.437a2.816,2.816,0,0,1-2.812,2.813,2.807,2.807,0,0,1-2.007-.844A6.143,6.143,0,0,1,9.8-4.461a5.032,5.032,0,0,0,3.136,1.086A5.064,5.064,0,0,0,18-8.437a5.038,5.038,0,0,0-.777-2.7l1.712-1.712.594.594a.412.412,0,0,0,.3.123.421.421,0,0,0,.425-.422v-2.777A.423.423,0,0,0,19.828-15.75ZM5.063-13.5A5.064,5.064,0,0,0,0-8.437,5.064,5.064,0,0,0,3.938-3.5v1.814H2.672a.423.423,0,0,0-.422.422V.141a.423.423,0,0,0,.422.422H3.938V1.828a.423.423,0,0,0,.422.422H5.766a.423.423,0,0,0,.422-.422V.563H7.453A.423.423,0,0,0,7.875.141V-1.266a.423.423,0,0,0-.422-.422H6.188V-3.5a5.067,5.067,0,0,0,3.938-4.936A5.064,5.064,0,0,0,5.063-13.5Zm0,7.875A2.816,2.816,0,0,1,2.25-8.437,2.816,2.816,0,0,1,5.063-11.25,2.816,2.816,0,0,1,7.875-8.437,2.816,2.816,0,0,1,5.063-5.625Z" transform="translate(0 15.75)" fill="#d7385e"/>
</svg>
