<svg xmlns="http://www.w3.org/2000/svg" xmlns:xlink="http://www.w3.org/1999/xlink" width="7.501" height="16" viewBox="0 0 7.501 16">
  <defs>
    <clipPath id="clip-path">
      <path id="Path_5739" data-name="Path 5739" d="M0-14a2,2,0,0,0-2,2,2,2,0,0,0,2,2,2,2,0,0,0,2-2A2,2,0,0,0,0-14ZM3.728-2.932l-1.5-6A.751.751,0,0,0,1.5-9.5H1.145a2.746,2.746,0,0,1-2.29,0H-1.5a.751.751,0,0,0-.728.568l-1.5,6A.75.75,0,0,0-3-2h1.75V1.25A.75.75,0,0,0-.5,2h1a.75.75,0,0,0,.75-.75V-2H3A.75.75,0,0,0,3.728-2.932Z" transform="translate(5348.75 -899)" fill="#6b7983"/>
       
    </clipPath>
  </defs>
    <path id="Path_5738" data-name="Path 5738" d="M0-14a2,2,0,0,0-2,2,2,2,0,0,0,2,2,2,2,0,0,0,2-2A2,2,0,0,0,0-14ZM1.5-9.5H1.145a2.746,2.746,0,0,1-2.29,0H-1.5A1.5,1.5,0,0,0-3-8v4.25A.75.75,0,0,0-2.25-3h.5V1.25A.75.75,0,0,0-1,2H1a.75.75,0,0,0,.75-.75V-3h.5A.75.75,0,0,0,3-3.75V-8A1.5,1.5,0,0,0,1.5-9.5Z" transform="translate(3 14)" fill="#6b7983"/>

  <g id="Group_13477" data-name="Group 13477" transform="translate(-936.25 -694)">
    <g id="Mask_Group_4" data-name="Mask Group 4" transform="translate(-4408.75 1607)" clip-path="url(#clip-path)">
      <rect id="Rectangle_4198" data-name="Rectangle 4198" width="5" height="20" transform="translate(5349 -915)" fill="#6b7983"/>
    </g>
  </g>
</svg>
