<svg xmlns="http://www.w3.org/2000/svg" width="38.918" height="40.2" viewBox="0 0 38.918 40.2">
  <path id="Union_49" data-name="Union 49" d="M11.921,39.554,8.96,27.535h-4.9V39.414a.586.586,0,0,1-1.172,0V10.119A3.415,3.415,0,0,1,6.259,6.744h9.13a3.611,3.611,0,0,1-1.155-1.711H6.259a5.092,5.092,0,0,0-5.087,5.086V32.493a.586.586,0,0,1-1.172,0V10.119A6.265,6.265,0,0,1,6.259,3.862h7.117l-1.139-1.2A4.81,4.81,0,0,0,8.764,1.172H7.829A.586.586,0,1,1,7.829,0h.935a5.987,5.987,0,0,1,4.322,1.856l1.3,1.371a2.717,2.717,0,0,1,3.348-1.493c1.072.278,1.251.845,3.246,0a2.717,2.717,0,0,1,3.348,1.494l1.3-1.373A5.987,5.987,0,0,1,29.957,0h.935a.586.586,0,1,1,0,1.172h-.935a4.81,4.81,0,0,0-3.472,1.491L24.548,4.7A3.353,3.353,0,0,1,23.33,6.744s9.229,0,9.244,0a3.379,3.379,0,0,1,3.261,3.372V39.414a.586.586,0,0,1-1.172,0V27.535h-4.9L26.8,39.554a.586.586,0,1,1-1.138-.28l2.7-10.974-.848.6a.586.586,0,0,1-.678-.956l1.877-1.332V23.579l-5.675-7.624a8.723,8.723,0,0,1-1.714-5.176V8.741L20.281,9.779a1.31,1.31,0,0,1-1.844,0L17.394,8.741V10.78a8.728,8.728,0,0,1-1.714,5.176L10,23.579v3.067l1.832,1.3a.586.586,0,1,1-.678.956l-.794-.563,2.694,10.935a.586.586,0,1,1-1.138.28ZM29.886,26.363h4.777V23.971H29.886Zm-25.83,0H8.833V23.971H4.055Zm0-16.243V22.8H9.125l5.615-7.543a7.548,7.548,0,0,0,1.482-4.476h0V7.917H12.785v3.015a6.093,6.093,0,0,1-.856,3.114l-2.619,4.4a.586.586,0,0,1-1.007-.6l2.619-4.4a4.92,4.92,0,0,0,.692-2.515V7.917h-3.2V9.941a6.1,6.1,0,0,1-.834,3.076l-.873,1.492A.586.586,0,0,1,5.7,13.917l.873-1.492a4.922,4.922,0,0,0,.673-2.484V7.917H6.2A2.218,2.218,0,0,0,4.055,10.119Zm18.441.66a7.544,7.544,0,0,0,1.483,4.476L29.594,22.8h5.069V10.119a2.205,2.205,0,0,0-2.173-2.2H31.476V9.941a4.923,4.923,0,0,0,.673,2.484l.873,1.492a.586.586,0,1,1-1.011.592l-.873-1.492A6.1,6.1,0,0,1,30.3,9.941V7.917H27.1v3.015a4.92,4.92,0,0,0,.692,2.515.586.586,0,1,1-1.007.6,6.093,6.093,0,0,1-.856-3.114V7.917H22.5ZM15.8,5.5l3.463,3.447a.135.135,0,0,0,.191,0L22.918,5.5a1.611,1.611,0,0,0,.342-1.8,1.55,1.55,0,0,0-1.912-.856l-1.581.519a1.3,1.3,0,0,1-.815,0l-1.581-.519a1.738,1.738,0,0,0-.5-.077A1.6,1.6,0,0,0,15.8,5.5ZM37.547,39.414V10.119A5.092,5.092,0,0,0,32.46,5.034H27.293a.586.586,0,1,1,0-1.172H32.46a6.265,6.265,0,0,1,6.258,6.258V39.414a.586.586,0,0,1-1.172,0ZM0,39.414V35.2a.586.586,0,0,1,1.172,0v4.21a.586.586,0,0,1-1.172,0ZM29.409,18.448l-1.172-1.97a.586.586,0,1,1,1.007-.6l1.172,1.97a.586.586,0,1,1-1.007.6Z" transform="translate(0.1 0.1)" fill="#6b7983" stroke="#6b7983" stroke-width="0.2"/>
</svg>
