<svg width="36" height="38" viewBox="0 0 36 38" fill="none" xmlns="http://www.w3.org/2000/svg">
<path d="M33.3063 28.275C33.3063 32.0468 29.5126 35.6183 24.1385 35.6183C18.7644 35.6183 14.9707 32.0468 14.9707 28.275C14.9707 24.5031 18.7644 20.9317 24.1385 20.9317C29.5126 20.9317 33.3063 24.5031 33.3063 28.275Z" fill="white" stroke="white" stroke-width="3.46676"/>
<path d="M35.3854 28.275C35.3854 33.3358 30.4278 37.5667 24.1388 37.5667C17.8499 37.5667 12.8923 33.3358 12.8923 28.275C12.8923 23.2143 17.8499 18.9834 24.1388 18.9834C30.4278 18.9834 35.3854 23.2143 35.3854 28.275Z" fill="white" stroke="white" stroke-width="0.86669"/>
<path d="M31.4919 28.2747C31.4919 31.5451 28.2774 34.3247 24.1386 34.3247C19.9998 34.3247 16.7854 31.5451 16.7854 28.2747C16.7854 25.0043 19.9998 22.2247 24.1386 22.2247C28.2774 22.2247 31.4919 25.0043 31.4919 28.2747Z" fill="#DE7439" stroke="white" stroke-width="0.86669"/>
<path d="M19.0055 1.25293L18.792 1.13143C17.8999 0.623844 16.7932 0.376306 15.6732 0.444441C14.553 0.51259 13.5148 0.890614 12.7422 1.49365L19.0055 1.25293ZM19.0055 1.25293L19.2194 1.13208M19.0055 1.25293L19.2194 1.13208M19.2194 1.13208C20.1623 0.599402 21.34 0.357702 22.5155 0.466865M19.2194 1.13208L22.5155 0.466865M22.5155 0.466865C23.6915 0.576074 24.7536 1.02577 25.4976 1.70481M22.5155 0.466865L25.4976 1.70481M25.4976 1.70481C26.2387 2.38121 26.6036 3.22648 26.5637 4.06796M25.4976 1.70481L26.5637 4.06796M26.5637 4.06796C26.5238 4.9106 26.0784 5.73779 25.2698 6.37415M26.5637 4.06796L25.2698 6.37415M25.2698 6.37415C25.2696 6.37429 25.2694 6.37444 25.2692 6.37459M25.2698 6.37415L25.2692 6.37459M25.2692 6.37459L20.5206 10.0825C20.5205 10.0825 20.5205 10.0825 20.5205 10.0826C20.133 10.385 19.5893 10.5667 19.0063 10.5667C18.4233 10.5667 17.8795 10.385 17.4921 10.0825C17.4921 10.0825 17.492 10.0825 17.492 10.0825L12.7422 6.37429L25.2692 6.37459ZM11.4333 3.9343C11.4333 4.82315 11.8849 5.70482 12.7421 6.37426L11.4333 3.9343ZM11.4333 3.9343C11.4333 3.04537 11.8849 2.16307 12.7421 1.4937L11.4333 3.9343Z" fill="white" stroke="#DE7439" stroke-width="0.86669"/>
<path d="M20.8478 28.275C20.8478 32.0468 17.0541 35.6183 11.68 35.6183C6.30595 35.6183 2.51219 32.0468 2.51219 28.275C2.51219 24.5031 6.30595 20.9317 11.68 20.9317C17.0541 20.9317 20.8478 24.5031 20.8478 28.275Z" fill="white" stroke="white" stroke-width="3.46676"/>
<path d="M22.9264 28.275C22.9264 33.3358 17.9688 37.5667 11.6799 37.5667C5.39088 37.5667 0.433345 33.3358 0.433345 28.275C0.433345 23.2143 5.39088 18.9834 11.6799 18.9834C17.9688 18.9834 22.9264 23.2143 22.9264 28.275Z" fill="white" stroke="white" stroke-width="0.86669"/>
<path d="M19.0329 28.2747C19.0329 31.5451 15.8184 34.3247 11.6796 34.3247C7.54086 34.3247 4.32641 31.5451 4.32641 28.2747C4.32641 25.0043 7.54086 22.2247 11.6796 22.2247C15.8184 22.2247 19.0329 25.0043 19.0329 28.2747Z" fill="white" stroke="#DE7439" stroke-width="0.86669"/>
<mask id="path-8-inside-1_7_78" fill="white">
<path d="M35.0397 28.275C35.0397 29.4669 34.7577 30.6472 34.2099 31.7485C33.6621 32.8497 32.8591 33.8503 31.8468 34.6931C30.8346 35.536 29.6328 36.2046 28.3102 36.6607C26.9876 37.1169 25.5701 37.3516 24.1385 37.3516C22.7069 37.3516 21.2894 37.1169 19.9668 36.6607C18.6442 36.2046 17.4425 35.536 16.4302 34.6931C15.4179 33.8503 14.6149 32.8497 14.0671 31.7485C13.5193 30.6472 13.2373 29.4669 13.2373 28.275H16.3483C16.3483 29.1268 16.5498 29.9702 16.9413 30.7572C17.3328 31.5442 17.9066 32.2592 18.63 32.8615C19.3534 33.4638 20.2122 33.9416 21.1573 34.2676C22.1025 34.5936 23.1155 34.7613 24.1385 34.7613C25.1615 34.7613 26.1745 34.5936 27.1197 34.2676C28.0648 33.9416 28.9236 33.4638 29.647 32.8615C30.3704 32.2592 30.9442 31.5442 31.3357 30.7572C31.7272 29.9702 31.9287 29.1268 31.9287 28.275H35.0397Z"/>
</mask>
<path d="M35.0397 28.275C35.0397 29.4669 34.7577 30.6472 34.2099 31.7485C33.6621 32.8497 32.8591 33.8503 31.8468 34.6931C30.8346 35.536 29.6328 36.2046 28.3102 36.6607C26.9876 37.1169 25.5701 37.3516 24.1385 37.3516C22.7069 37.3516 21.2894 37.1169 19.9668 36.6607C18.6442 36.2046 17.4425 35.536 16.4302 34.6931C15.4179 33.8503 14.6149 32.8497 14.0671 31.7485C13.5193 30.6472 13.2373 29.4669 13.2373 28.275H16.3483C16.3483 29.1268 16.5498 29.9702 16.9413 30.7572C17.3328 31.5442 17.9066 32.2592 18.63 32.8615C19.3534 33.4638 20.2122 33.9416 21.1573 34.2676C22.1025 34.5936 23.1155 34.7613 24.1385 34.7613C25.1615 34.7613 26.1745 34.5936 27.1197 34.2676C28.0648 33.9416 28.9236 33.4638 29.647 32.8615C30.3704 32.2592 30.9442 31.5442 31.3357 30.7572C31.7272 29.9702 31.9287 29.1268 31.9287 28.275H35.0397Z" fill="white" stroke="white" stroke-width="6.93352" mask="url(#path-8-inside-1_7_78)"/>
<mask id="path-9-inside-2_7_78" fill="white">
<path d="M35.8187 28.275C35.8187 30.8543 34.5882 33.3279 32.3978 35.1517C30.2074 36.9755 27.2365 38 24.1388 38C21.0412 38 18.0703 36.9755 15.8799 35.1517C13.6895 33.3279 12.459 30.8543 12.459 28.2751L13.2402 28.2751C13.2402 30.6818 14.3884 32.9899 16.4323 34.6917C18.4762 36.3935 21.2483 37.3496 24.1388 37.3496C27.0294 37.3496 29.8015 36.3935 31.8454 34.6917C33.8893 32.9899 35.0375 30.6818 35.0375 28.275H35.8187Z"/>
</mask>
<path d="M35.8187 28.275C35.8187 30.8543 34.5882 33.3279 32.3978 35.1517C30.2074 36.9755 27.2365 38 24.1388 38C21.0412 38 18.0703 36.9755 15.8799 35.1517C13.6895 33.3279 12.459 30.8543 12.459 28.2751L13.2402 28.2751C13.2402 30.6818 14.3884 32.9899 16.4323 34.6917C18.4762 36.3935 21.2483 37.3496 24.1388 37.3496C27.0294 37.3496 29.8015 36.3935 31.8454 34.6917C33.8893 32.9899 35.0375 30.6818 35.0375 28.275H35.8187Z" fill="white" stroke="white" stroke-width="1.73338" mask="url(#path-9-inside-2_7_78)"/>
<mask id="path-10-inside-3_7_78" fill="white">
<path d="M31.9252 28.2747C31.9252 29.1261 31.7238 29.9692 31.3325 30.7558C30.9412 31.5423 30.3676 32.2571 29.6446 32.8591C28.9215 33.4611 28.0631 33.9387 27.1184 34.2645C26.1737 34.5903 25.1612 34.758 24.1386 34.758C23.1161 34.758 22.1035 34.5903 21.1588 34.2645C20.2141 33.9387 19.3557 33.4611 18.6327 32.8591C17.9096 32.2571 17.3361 31.5423 16.9448 30.7557C16.5535 29.9692 16.3521 29.1261 16.3521 28.2747H17.1297C17.1297 29.0411 17.3109 29.7999 17.6632 30.508C18.0154 31.216 18.5317 31.8594 19.1825 32.4013C19.8334 32.9432 20.606 33.3731 21.4564 33.6663C22.3068 33.9596 23.2182 34.1106 24.1386 34.1106C25.0591 34.1106 25.9705 33.9596 26.8208 33.6663C27.6712 33.3731 28.4439 32.9432 29.0947 32.4013C29.7456 31.8594 30.2618 31.216 30.6141 30.508C30.9663 29.7999 31.1476 29.0411 31.1476 28.2747H31.9252Z"/>
</mask>
<path d="M31.9252 28.2747C31.9252 29.1261 31.7238 29.9692 31.3325 30.7558C30.9412 31.5423 30.3676 32.2571 29.6446 32.8591C28.9215 33.4611 28.0631 33.9387 27.1184 34.2645C26.1737 34.5903 25.1612 34.758 24.1386 34.758C23.1161 34.758 22.1035 34.5903 21.1588 34.2645C20.2141 33.9387 19.3557 33.4611 18.6327 32.8591C17.9096 32.2571 17.3361 31.5423 16.9448 30.7557C16.5535 29.9692 16.3521 29.1261 16.3521 28.2747H17.1297C17.1297 29.0411 17.3109 29.7999 17.6632 30.508C18.0154 31.216 18.5317 31.8594 19.1825 32.4013C19.8334 32.9432 20.606 33.3731 21.4564 33.6663C22.3068 33.9596 23.2182 34.1106 24.1386 34.1106C25.0591 34.1106 25.9705 33.9596 26.8208 33.6663C27.6712 33.3731 28.4439 32.9432 29.0947 32.4013C29.7456 31.8594 30.2618 31.216 30.6141 30.508C30.9663 29.7999 31.1476 29.0411 31.1476 28.2747H31.9252Z" fill="white" stroke="#DE7439" stroke-width="1.73338" mask="url(#path-10-inside-3_7_78)"/>
</svg>
